<?xml version="1.0" encoding="UTF-8" standalone="no"?>
<!-- Created with Inkscape (http://www.inkscape.org/) -->

<svg
   xmlns:dc="http://purl.org/dc/elements/1.1/"
   xmlns:cc="http://creativecommons.org/ns#"
   xmlns:rdf="http://www.w3.org/1999/02/22-rdf-syntax-ns#"
   xmlns:svg="http://www.w3.org/2000/svg"
   xmlns="http://www.w3.org/2000/svg"
   version="1.1"
   width="100"
   height="100"
   viewBox="5 -10 100 135"
   id="Your_Icon"
   xml:space="preserve"><metadata
     id="metadata3237"><rdf:RDF><cc:Work
         rdf:about=""><dc:format>image/svg+xml</dc:format><dc:type
           rdf:resource="http://purl.org/dc/dcmitype/StillImage" /><dc:title></dc:title></cc:Work></rdf:RDF></metadata><defs
     id="defs3235" /><path
     d="M 77.8,56.3 C 77,56 72.3,53.6 72.2,50.6 72.1,47.5 73.4,43.6 73,43.1 72.7,42.5 67.4,42.4 65.7,41.2 64.1,40 62.4,36.1 62,35.4 c -0.4,-0.7 -0.6,-1.5 -1.2,-1.2 -0.6,0.3 -2.8,1.6 -4.7,1.5 -1.9,-0.1 -3.3,0 -3.8,-0.8 -0.5,-0.8 -0.9,-1.9 -0.4,-1.8 0.5,0.1 1.8,0.3 4.5,0 2.7,-0.3 4.4,-1.4 5.6,-1.6 1.2,-0.2 2.8,2.2 5,2.3 2.1,0.1 4.7,-4.5 3.6,-5.3 -0.5,-0.7 1.9,-1.3 2,-3.1 0.1,-1.8 -1.6,-2.7 -3,-2.6 0,0 -3.5,0.3 -4.7,-0.9 -1.2,-1.2 -2.8,-4.1 -3.5,-6 C 60.7,14 58.6,13.8 57.9,12.5 57.3,11.2 57.7,3.8 53.3,3.9 48.9,4 49.6,5.9 49.5,8 c -0.1,2.1 0.1,4.9 -0.8,5 -0.9,0.1 -2.3,-7.8 -7.3,-5.7 -5,2.1 -2.2,6.2 -1.5,7.3 0.7,1.1 2.1,3.4 1.3,4.1 -0.7,0.7 -8,-3.6 -9.5,-0.9 -3.2,4.6 5.5,8.7 5.5,9.9 0,1.2 -2.5,1.1 -4,1.3 -1.5,0.3 -2.5,1.5 -2.7,2.5 -0.2,1.1 1.5,3.4 3.4,4.1 2,0.7 4.1,1.6 4,2.5 -0.1,0.9 -2.6,1.3 -5.2,0.1 -2.6,-1.2 -6.4,-3.5 -6.4,-3.5 0,0 -0.9,-1.1 -1.7,-0.9 -0.8,0.2 -5,4.7 -0.6,14 4.4,9.3 10.5,16 13.4,15.4 1.6,-0.2 1.1,-1.5 1.2,-3.5 0.1,-2 1,-7.3 1.8,-9.4 0.8,-2.2 1.8,-3.2 1.8,-3.2 0,0 4.8,4.4 6.8,6.4 2,2 5.2,6.8 3.7,10.5 -1.5,3.7 -3.9,5.2 -10.7,6.1 -6.8,0.9 -14.3,3.6 -14.8,11.8 -0.3,8.1 4.8,13.2 10.1,13.5 5.3,0.3 9.4,-3.2 10.4,-8.6 1,-5.5 -0.6,-5.9 -0.2,-6.4 0.4,-0.6 6.9,0.9 9.2,2.7 2.3,1.8 4.2,1.8 4.6,1.8 0.4,0 0.3,-5.7 2.5,-8.1 2.2,-2.4 7.8,-4 9.2,-4.2 1.4,-0.2 1.8,-1.2 1.4,-2.1 -0.4,-0.8 -1.6,-5.4 -0.3,-7.5 1.3,-2.1 3.5,-4.6 3.8,-5 0.5,-0.4 0.7,-1.4 -0.1,-1.7 z M 55.9,17.5 c 2.6,0 4.6,2.1 4.6,4.6 0,2.5 -2.1,4.6 -4.6,4.6 -2.6,0 -4.6,-2.1 -4.6,-4.6 0,-2.5 2,-4.6 4.6,-4.6 z M 38.2,87 c -1.3,0 -2.4,-1.1 -2.4,-2.4 0,-1.3 1.1,-2.4 2.4,-2.4 1.3,0 2.4,1.1 2.4,2.4 0,1.4 -1.1,2.4 -2.4,2.4 z"
     id="path3225" /><circle
     cx="55.900002"
     cy="22.1"
     r="2"
     id="circle3227" /></svg>