<?xml version="1.0" encoding="UTF-8" standalone="no"?>
<!-- Created with Inkscape (http://www.inkscape.org/) -->

<svg
   xmlns:dc="http://purl.org/dc/elements/1.1/"
   xmlns:cc="http://creativecommons.org/ns#"
   xmlns:rdf="http://www.w3.org/1999/02/22-rdf-syntax-ns#"
   xmlns:svg="http://www.w3.org/2000/svg"
   xmlns="http://www.w3.org/2000/svg"
   version="1.1"
   width="100"
   height="100"
   viewBox="5 -10 100 135"
   id="Layer_1"
   xml:space="preserve"><metadata
     id="metadata3123"><rdf:RDF><cc:Work
         rdf:about=""><dc:format>image/svg+xml</dc:format><dc:type
           rdf:resource="http://purl.org/dc/dcmitype/StillImage" /><dc:title></dc:title></cc:Work></rdf:RDF></metadata><defs
     id="defs3121" /><path
     d="m 93.517,45.085 c -1.836,-0.919 1.122,-3.675 -3.267,-3.573 -0.199,0.005 -0.595,0.208 -0.583,0.019 0.041,-0.656 -0.28,0.012 -0.416,0.019 -0.495,0.025 -0.953,0.06 -1.376,0.101 -0.242,0.023 -0.75,-0.339 -0.75,-0.339 -0.2,0.024 -0.333,0.464 -0.514,0.491 -0.757,0.111 -1.345,0.237 -1.775,0.347 -0.262,0.066 -0.461,-0.463 -0.461,-0.463 0,0 -0.453,0.744 -0.453,0.744 0,0 -0.184,0.034 -0.483,0.074 -0.863,0.115 -2.694,0.279 -3.906,-0.175 0,0 2.858,-2.144 3.573,-3.267 0.07,-0.11 0.443,0.136 0.582,-0.063 0,0 -0.188,-0.5 0.112,-0.937 0.073,-0.106 0.156,-0.215 0.239,-0.329 0.182,-0.252 0.38,-0.525 0.59,-0.812 0.05,-0.068 0.072,-0.241 0.152,-0.208 0.531,0.222 0.211,-0.287 0.319,-0.433 0.123,-0.167 0.711,-0.862 0.837,-1.032 0.238,-0.32 0.625,-0.188 0.625,-0.188 0,0 -0.156,-0.537 -0.051,-0.678 0.101,-0.135 0.2,-0.269 0.298,-0.399 0.161,-0.215 0.94,-0.173 0.94,-0.173 0.138,-0.185 -0.207,-0.806 -0.086,-0.968 0.512,-0.681 0.852,-1.131 0.852,-1.131 0,0 -4.696,-2.042 -6.941,-3.266 -2.245,-1.225 -0.307,-1.224 0.306,-1.735 0.612,-0.511 1.734,-2.042 0.714,-3.47 -1.02,-1.429 -4.897,-4.186 -6.327,-4.186 -1.43,0 1.02,0.306 -1.328,0.918 -2.347,0.613 -3.571,0.205 -5.103,-0.714 C 68.304,18.34 65.957,15.38 65.957,15.38 L 62.69,7.625 c 0,0 0.714,7.655 0.204,8.063 -0.51,0.408 -1.838,2.143 -3.062,1.531 -1.224,-0.612 -5.717,-7.961 -5.717,-7.961 0,0 1.94,5.92 1.328,6.838 -0.613,0.919 -2.757,2.756 -2.757,2.756 0,0 -3.266,0.613 -4.083,0.715 -0.817,0.102 -10.514,3.369 -15.516,10.82 -5.001,7.451 -7.042,14.392 -7.042,14.392 0,0 0.408,1.224 -3.369,3.47 -3.776,2.246 -6.532,12.044 -6.532,12.044 0,0 -0.918,0.51 -1.633,1.633 -0.524,0.823 -0.333,2.08 0.047,2.896 -3.083,2.839 -9.598,9.304 -10.2,12.108 -0.779,3.626 0.456,2.247 0.456,2.247 0,0 0.314,-4.42 10.435,-13.514 0.06,0.041 0.127,0.086 0.205,0.137 -2.69,2.564 -8.297,8.412 -9.32,12.372 -0.924,3.58 -0.574,3.232 -0.574,3.232 0,0 6.502,-11.466 10.769,-14.892 0.037,-0.029 0.062,-0.066 0.095,-0.099 0.062,0.038 0.128,0.08 0.193,0.119 -2.735,3.438 -9.058,11.902 -9.718,15.271 -0.836,4.255 -0.708,3.784 -0.708,3.784 0,0 10.38,-17.177 11.039,-18.196 0.075,-0.116 0.139,-0.238 0.198,-0.359 0.125,0.076 0.253,0.154 0.382,0.231 -0.193,0.24 -0.374,0.514 -0.506,0.819 C 16.822,69.196 6.13,86.208 6.13,86.208 c 0,0 1.579,-0.308 4.197,-3.764 2.068,-2.729 6.45,-11.495 8.009,-14.863 0.157,0.095 0.313,0.189 0.469,0.282 -0.099,0.148 -0.194,0.307 -0.271,0.48 -6.317,14.151 -9.992,17.213 -9.992,17.213 0,0 1.148,-0.83 3.788,-3.421 2.112,-2.074 5.729,-10.507 7.051,-13.927 0.187,0.111 0.369,0.22 0.544,0.324 -0.05,0.115 -0.094,0.235 -0.127,0.366 -0.285,1.129 -8.041,16.811 -8.041,16.811 0,0 0.479,-0.399 3.062,-3.063 2.016,-2.076 4.772,-10.107 5.835,-13.68 0.713,0.424 1.208,0.716 1.208,0.716 0,0 0.816,-0.203 1.021,-1.633 0.205,-1.429 4.797,-5.613 4.797,-5.613 0,0 -1.94,3.368 -1.94,6.124 0,2.756 1.124,2.858 1.327,3.878 0.204,1.021 0,3.165 1.531,4.287 1.531,1.122 3.675,2.552 5.818,2.961 2.144,0.409 2.961,0.103 3.777,1.327 0.816,1.226 1.531,0.919 1.531,0.919 0,0 0.663,0.408 1.429,5.154 0.661,4.098 0.865,5.91 0.909,6.33 -0.096,-0.961 -1.008,-9.845 -1.846,-11.867 l 0.427,-0.332 c 0,0 0.081,-0.132 0.173,-0.366 0.198,0.315 0.453,0.74 0.797,1.336 2.296,3.98 3.828,6.89 3.828,6.89 0,0 -3.215,-7.043 -4.44,-8.727 -0.008,-0.011 -0.016,-0.018 -0.023,-0.026 0.245,-1.058 0.258,-2.984 -1.661,-5.435 -1.574,-2.008 -2.249,-2.598 -2.54,-2.714 0.36,-0.285 1.063,-0.924 1.213,-1.676 0.832,-4.163 0.918,-5.92 0.918,-5.92 0,0 1.021,2.144 3.267,3.675 2.246,1.531 5.92,2.042 5.92,2.042 0,0 -0.306,2.857 -0.714,4.082 -0.408,1.225 -1.02,4.287 1.225,6.431 2.245,2.144 4.694,3.368 7.348,3.063 2.654,-0.307 8.064,-0.103 8.064,-0.103 0,0 1.124,-0.509 2.756,-1.53 0.758,-0.474 1.063,-1.44 1.174,-2.341 2.877,-1.176 6.176,-1.232 6.176,-1.232 0,0 -2.042,-0.204 -4.084,0.204 -0.811,0.163 -1.502,0.372 -2.049,0.567 0.02,-0.313 0.019,-0.6 0.01,-0.841 3.382,-1.686 5.94,-2.372 7.196,-2.635 -0.228,0.039 -0.503,0.088 -0.87,0.152 -1.242,0.22 -4.568,1.324 -6.362,1.937 -0.01,-0.096 -0.017,-0.15 -0.017,-0.15 0,0 -1.888,-1.122 -3.521,-0.919 -1.634,0.204 -3.98,-1.684 -5.001,-2.296 -1.021,-0.612 -2.246,-2.553 -2.246,-2.553 l 0.103,-1.939 c 0,0 7.043,0.307 12.351,-3.062 5.307,-3.369 5.716,-3.266 7.554,-5.716 1.837,-2.449 5.511,-6.124 7.552,-8.063 2.042,-1.939 3.369,-3.266 4.798,-3.981 1.43,-0.715 2.755,-1.633 3.471,-1.939 0.712,-0.305 2.067,-1.566 0.508,-2.347 z m -59.815,1.226 c 0.671,-1.612 11.966,-7.002 12.235,-7.038 l -0.566,0.888 c -0.672,0.384 -12.262,8.72 -12.262,8.72 0,0 -0.077,-0.959 0.593,-2.57 z m 0.51,4.389 c 0,0 -0.898,0.389 -0.307,-1.225 0.593,-1.615 12.444,-9.686 12.667,-9.724 l -0.489,0.892 C 45.52,41.03 34.212,50.7 34.212,50.7 z m 1.531,0.101 c 0.718,-1.892 11.45,-10.77 11.663,-10.813 l -0.549,1.043 c -0.566,0.453 -10.56,10.265 -10.56,10.265 0,0 -1.273,1.395 -0.554,-0.495 z m 2.756,0.715 c -0.816,0.613 -2.212,0.668 -2.212,0.668 L 47.828,40.601 c 0.053,0.112 -6.949,9.13 -9.329,10.915 z m 0.634,0.277 c 0,0 8.137,-9.516 8.451,-9.974 l 0.204,1.021 c 0.065,0.117 -4.341,6.791 -6.613,7.942 -2.273,1.152 -2.042,1.011 -2.042,1.011 z m 3.671,0.102 c -2.225,1.185 -2,1.036 -2,1.036 l 7.291,-9.274 c 0.093,0.135 -3.065,7.055 -5.291,8.238 z m 6.413,-5.891 c 0,0 0.027,-0.071 0.069,-0.186 -0.042,0.119 -0.069,0.186 -0.069,0.186 z M 48.495,40.593 48.47,40.155 c 0.843,0.666 1.176,1.597 1.263,2.52 -0.308,-1.329 -1.238,-2.082 -1.238,-2.082 z m 0.953,0.323 c 0,0 0,0 -0.317,-0.506 -1.27,-2.027 -3.473,-1.845 -3.473,-1.845 l -0.319,-0.301 c 3.013,-0.268 4.43,2.646 4.43,2.646 l -0.321,0.006 z m 21.613,-11.04 c -1.014,0 -1.837,-0.822 -1.837,-1.837 0,-1.015 0.823,-1.837 1.837,-1.837 1.015,0 1.838,0.823 1.838,1.837 -0.001,1.015 -0.824,1.837 -1.838,1.837 z"
     id="path3113"
     style="fill:#000000" /></svg>