<?xml version="1.0" encoding="UTF-8" standalone="no"?>
<svg
   xmlns:dc="http://purl.org/dc/elements/1.1/"
   xmlns:cc="http://creativecommons.org/ns#"
   xmlns:rdf="http://www.w3.org/1999/02/22-rdf-syntax-ns#"
   xmlns:svg="http://www.w3.org/2000/svg"
   xmlns="http://www.w3.org/2000/svg"
   xmlns:sodipodi="http://sodipodi.sourceforge.net/DTD/sodipodi-0.dtd"
   xmlns:inkscape="http://www.inkscape.org/namespaces/inkscape"
   version="1.1"
   id="Layer_1"
   x="0px"
   y="0px"
   width="100px"
   height="100px"
   viewBox="5.0 -10.0 100.0 135.0"
   enable-background="new 0 0 100 100"
   xml:space="preserve"
   inkscape:version="0.48.5 r10040"
   sodipodi:docname="noun_37060_cc.svg"><metadata
     id="metadata3110"><rdf:RDF><cc:Work
         rdf:about=""><dc:format>image/svg+xml</dc:format><dc:type
           rdf:resource="http://purl.org/dc/dcmitype/StillImage" /><dc:title></dc:title></cc:Work></rdf:RDF></metadata><defs
     id="defs3108" /><sodipodi:namedview
     pagecolor="#ffffff"
     bordercolor="#666666"
     borderopacity="1"
     objecttolerance="10"
     gridtolerance="10"
     guidetolerance="10"
     inkscape:pageopacity="0"
     inkscape:pageshadow="2"
     inkscape:window-width="1855"
     inkscape:window-height="1056"
     id="namedview3106"
     showgrid="false"
     inkscape:zoom="9.09"
     inkscape:cx="50"
     inkscape:cy="50"
     inkscape:window-x="65"
     inkscape:window-y="24"
     inkscape:window-maximized="1"
     inkscape:current-layer="Layer_1" /><path
     fill-rule="evenodd"
     clip-rule="evenodd"
     d="M42.907,29.392c0.293,0.537-0.19,0.955,0.121,1.494  c1.173-2.141,1.445-4.529,2.424-6.698c0.137,1.184-0.03,2.398,0.385,3.659c2.606-1.977,5.463-3.48,8.146-5.257  c1.09-0.721,1.699-1.899,2.287-3.038c2.071-4.013,3.613-8.264,5.537-12.344c1.039-2.204,2.15-4.36,3.839-6.208  c-0.663,1.919-1.345,3.832-1.985,5.758c-1.185,3.559-2.266,7.143-2.862,10.861c-0.407,2.539-0.13,5.014,0.46,7.479  c0.069,0.29,0.16,0.574,0.283,1.005c-1.623-0.346-3.122-0.575-4.561-1.007c-0.781-0.234-1.375-0.079-2.01,0.268  c-5.092,2.78-8.634,7.001-11.282,12.075c-2.765,5.298-3.261,10.772-1.427,16.46c0.252,0.781,0.232,1.591,0.096,2.374  c-0.211,1.214-0.67,1.402-2.723,1.266c-0.06,0.458,0.295,0.697,0.537,0.971c0.584,0.658,1.195,1.417,2.188,1.209  c0.985-0.206,1.115-1.183,1.325-1.972c0.794-2.992,0.901-6.061,0.914-9.134c0.005-1.267,0.001-2.534,0.143-3.855  c1.241,1.159,2.015,2.6,2.687,4.094c2.082,4.635,3.375,9.53,4.555,14.445c0.571,2.381,2.051,3.992,3.743,5.604  c0.146-0.468-0.266-0.613-0.401-0.885c-0.159-0.319-0.414-0.592-0.569-0.914c-0.295-0.612-0.672-1.319-0.164-1.908  c0.545-0.631,1.289-0.247,1.878,0.049c2.398,1.204,4.603,2.731,6.756,4.318c8.988,6.625,16.445,14.674,22.259,24.212  c1.508,2.474,1.314,1.845-0.828,3.065c-3.646,2.079-7.603,2.238-11.639,1.651c-3.001-0.437-5.977-1.007-8.901-1.833  c-1.052-0.297-2.019-0.644-2.833-1.432c-0.56-0.543-1.286-0.91-2.369-1.037c0.905,0.656,1.86,0.794,2.43,1.558  c-5.948,1.112-21.983-6.289-25.493-11.786c0.987-0.043,1.911-0.216,2.824-0.449c0.915-0.233,1.818-0.051,2.749,0.048  c-1.025-0.895-2.224-1.368-3.584-1.268c-6.025,0.445-12.051,0.735-18.068-0.072c-1.999-0.269-3.945-0.768-6-1.74  c4.426-1.377,8.53-2.882,12.477-4.79c1.853-0.896,3.626-1.886,4.698-3.742c0.919,0.466,1.449,1.305,2.298,1.784  c-1.18-1.856-2.99-3.247-3.931-5.318c-0.24,1.279,0.229,2.601-0.353,3.844c-2.013-2.18-2.73-11.485-1.188-19.293  C29.706,43.177,34.59,35.186,42.907,29.392z M38.793,56.162c-3.339-6.651-2.363-13.1,0.732-19.481  c-0.188,0.06-0.287,0.121-0.34,0.209c-2.416,4.049-3.813,8.397-3.214,13.132C36.256,52.265,36.676,54.624,38.793,56.162z   M68.694,93.655c4.174,3.498,13.055,4.806,16.021,2.334C79.13,96.723,73.964,95.777,68.694,93.655z M64.674,91.303  c-2.171-1.574-3.744-4.299-6.952-3.583c0.251,0.524,1.171,0.2,1.399,0.819C60.122,91.246,62.469,91.14,64.674,91.303z   M47.176,85.149c-0.761-1.949-0.269-3.726,0.887-5.644C46.296,80.997,45.978,83.325,47.176,85.149z M42.357,76.79  c-1.391,1.327-1.669,3.243-0.699,4.805C41.172,79.892,41.606,78.337,42.357,76.79z M44.095,83.269  c-0.706-1.756,0.111-3.261,0.808-4.985C43.403,79.766,43.101,81.71,44.095,83.269z"
     id="path3098" /><path
     fill-rule="evenodd"
     clip-rule="evenodd"
     d="M66.761,61.803c0.724,1.915,0.603,6.253-0.262,9.434  c-2.078-1.471-4.098-2.9-6.271-4.439C63.232,66.117,65.34,64.524,66.761,61.803z"
     id="path3100" /></svg>